<svg width="30" height="30" viewBox="0 0 30 30" fill="none" xmlns="http://www.w3.org/2000/svg">
<rect width="30" height="30" rx="15" fill="#5268F4"/>
<path d="M13.45 20.4625C12.925 20.4625 12.4375 20.3375 12 20.0875C11 19.5125 10.425 18.3375 10.425 16.85V13.15C10.425 11.675 11 10.4875 12 9.9125C13 9.3375 14.3 9.425 15.5875 10.175L18.8 12.025C20.075 12.7625 20.8125 13.85 20.8125 15C20.8125 16.15 20.075 17.2375 18.8 17.975L15.5875 19.825C14.8625 20.25 14.125 20.4625 13.45 20.4625ZM13.4625 11.4125C13.2625 11.4125 13.0875 11.45 12.95 11.5375C12.55 11.775 12.3125 12.3625 12.3125 13.15V16.85C12.3125 17.6375 12.5375 18.225 12.95 18.4625C13.35 18.7 13.975 18.6 14.6625 18.2L17.875 16.35C18.5625 15.95 18.95 15.4625 18.95 15C18.95 14.5375 18.5625 14.0375 17.875 13.65L14.6625 11.8C14.2125 11.5375 13.8 11.4125 13.4625 11.4125Z" fill="white"/>
<path d="M15 28.4375C7.5875 28.4375 1.5625 22.4125 1.5625 15C1.5625 7.5875 7.5875 1.5625 15 1.5625C22.4125 1.5625 28.4375 7.5875 28.4375 15C28.4375 22.4125 22.4125 28.4375 15 28.4375ZM15 3.4375C8.625 3.4375 3.4375 8.625 3.4375 15C3.4375 21.375 8.625 26.5625 15 26.5625C21.375 26.5625 26.5625 21.375 26.5625 15C26.5625 8.625 21.375 3.4375 15 3.4375Z" fill="white"/>
</svg>
